<?xml version="1.0" encoding="utf-8"?>
<!-- Generator: Adobe Illustrator 21.1.0, SVG Export Plug-In . SVG Version: 6.00 Build 0)  -->
<svg version="1.1" id="Layer_1" xmlns="http://www.w3.org/2000/svg" xmlns:xlink="http://www.w3.org/1999/xlink" x="0px" y="0px"
	 viewBox="0 0 160 160" style="enable-background:new 0 0 160 160;" xml:space="preserve">
<style type="text/css">
	.st0{fill:#A7DBD8;}
	.st1{fill:#BF6121;}
	.st2{fill:#FFC197;}
	.st3{fill:#5B0018;}
	.st4{fill:#FFFFFF;}
	.st5{fill:#FF9C92;}
</style>
<g>
	<rect class="st0" width="160" height="160"/>
	<g>
		<path class="st1" d="M134.2,70.9c3.7-2.4,5.9-7.4,6.6-11.8c2.8-18.6-20.8-20.2-27.4-11.3c-9.7-7.3-20.6-11.3-32.1-11.3
			c-9.2,0-18,2.6-26.1,7.3c-2.5-2.6-5.8-4.6-8.9-5.3c-7.2-1.4-13.8-1-17.4,5.9c-3,5.6-2.4,14.7,0.9,20c0.4,0.7,0.9,1.3,1.5,1.9
			C24,76.9,17.9,89.8,13.7,104.3v55.4h132.5V95.9C143,86.8,138.9,78.4,134.2,70.9z"/>
	</g>
	<ellipse class="st2" cx="83.2" cy="89.5" rx="22.9" ry="12.4"/>
	<circle class="st3" cx="54.6" cy="71.3" r="3.5"/>
	<circle class="st4" cx="53" cy="69.8" r="1"/>
	<circle class="st3" cx="110.5" cy="71.3" r="3.5"/>
	<circle class="st4" cx="108.9" cy="69.8" r="1"/>
	<g>
		<g>
			<path class="st3" d="M97,90c-5.3,2.8-11.2-2.1-13.9-6.3c-0.2-0.4-0.8-0.5-1-0.1c-2.7,4.2-8.6,9.8-13.9,6.5
				c-0.7-0.4-1.3,0.6-0.7,1c5.9,3.7,12.5-1.9,15.6-6.8c-0.3,0-0.7-0.1-1-0.1c3.1,4.8,9.6,10,15.5,6.9C98.2,90.7,97.7,89.6,97,90
				L97,90z"/>
		</g>
	</g>
	<ellipse class="st3" cx="82.7" cy="82.1" rx="2.9" ry="2.1"/>
	<g>
		<path class="st2" d="M49.9,46.9c-3.3-4.1-11.6-6.3-15.6-2.7c-4.6,4.2-3.6,15.2,0.9,17.8c2.9-5,8-10.8,13.2-14.2L49.9,46.9z"/>
	</g>
	<g>
		<path class="st2" d="M118.2,49c4.7-4.4,12.5-4,16.2-0.1c5.5,5.9,2,13.1-2.6,16.5c-1.6-5.6-9.4-14.1-13.5-16.2L118.2,49z"/>
	</g>
	<path class="st2" d="M146.2,159.7c-6.2-28.8-33.6-50.5-66.4-50.5c-32.3,0-59.3,21-66,49.1v1.4H146.2z"/>
	<ellipse class="st5" cx="117.1" cy="82.3" rx="6.7" ry="3.1"/>
	<ellipse class="st5" cx="49.2" cy="82.3" rx="6.7" ry="3.1"/>
</g>
</svg>
