<?xml version="1.0" encoding="utf-8"?>
<!-- Generator: Adobe Illustrator 21.1.0, SVG Export Plug-In . SVG Version: 6.00 Build 0)  -->
<svg version="1.1" id="Layer_1" xmlns="http://www.w3.org/2000/svg" xmlns:xlink="http://www.w3.org/1999/xlink" x="0px" y="0px"
	 viewBox="0 0 160 160" style="enable-background:new 0 0 160 160;" xml:space="preserve">
<style type="text/css">
	.st0{fill:#C2DCD7;}
	.st1{fill:#FFFFED;}
	.st2{fill:#FFD9D7;}
	.st3{fill:#5B0018;}
	.st4{fill:#FFFFFF;}
</style>
<g>
	<rect class="st0" width="160" height="160"/>
	<g>
		<path class="st1" d="M128.6,73.7c7.9-12.9,21-49.9,6.1-61.4c-18.7-14.4-25.9,21.9-28,42.5c-8.2-4.5-17.1-7-26.5-7
			c-8.6,0-16.9,2.1-24.6,6c-2.2-20.7-9.5-55.6-27.9-41.4c-14.4,11.1-2.7,46,5.2,60c-8.7,10.4-15.7,23.6-20.4,38.6v51.7h132.5v-59.4
			C140.9,91.9,135.3,82,128.6,73.7z"/>
	</g>
	<g>
		<path class="st2" d="M115.2,58c-1.7-5.8,2.4-41.4,13.2-36.4c9.3,4.4,3.7,27.4-0.2,34.1c-3.1,5.2-9.5,9.6-12.7,3L115.2,58z"/>
	</g>
	<g>
		<path class="st2" d="M48.6,50.3C48.3,46.8,41.9,7.1,29,20.7c-6.3,6.7,6.1,42,13.9,40C48.2,59.4,49.1,55.2,48.6,50.3z"/>
	</g>
	<circle class="st3" cx="52.1" cy="82.5" r="3.5"/>
	<circle class="st4" cx="50.5" cy="81" r="1"/>
	<circle class="st3" cx="109.4" cy="82.5" r="3.5"/>
	<circle class="st4" cx="107.8" cy="81" r="1"/>
	<g>
		<g>
			<path class="st3" d="M94.4,102c-5.3,2.8-11.2-2.1-13.9-6.3c-0.2-0.4-0.8-0.5-1-0.1c-2.7,4.2-8.6,9.8-13.9,6.5
				c-0.7-0.4-1.3,0.6-0.7,1c5.9,3.7,12.5-1.9,15.6-6.8c-0.3,0-0.7-0.1-1-0.1c3.1,4.8,9.6,10,15.5,6.9
				C95.6,102.7,95.1,101.6,94.4,102L94.4,102z"/>
		</g>
	</g>
	<ellipse class="st3" cx="80" cy="94.1" rx="2.9" ry="2.1"/>
	<ellipse class="st2" cx="111.1" cy="96.4" rx="7.7" ry="3.6"/>
	<ellipse class="st2" cx="50.4" cy="96.4" rx="7.7" ry="3.6"/>
</g>
</svg>
