<?xml version="1.0" encoding="utf-8"?>
<!-- Generator: Adobe Illustrator 21.1.0, SVG Export Plug-In . SVG Version: 6.00 Build 0)  -->
<svg version="1.1" id="Layer_1" xmlns="http://www.w3.org/2000/svg" xmlns:xlink="http://www.w3.org/1999/xlink" x="0px" y="0px"
	 viewBox="0 0 160 160" style="enable-background:new 0 0 160 160;" xml:space="preserve">
<style type="text/css">
	.st0{fill:#C8C8A9;}
	.st1{fill:#FA6900;}
	.st2{fill:#FFFFED;}
	.st3{fill:#5B0018;}
	.st4{fill:#FFFFFF;}
	.st5{fill:#FF8F7D;}
</style>
<g>
	<rect class="st0" width="160" height="160"/>
	<g>
		<path class="st1" d="M130,67.3c5.1-10,4.1-22.7,1.2-33.2c-8.6,4.3-21.2,7.1-27.6,15.6c-7.4-2.8-15.3-4.4-23.5-4.4
			c-9.1,0-17.9,1.9-26.1,5.4c-5.8-7.6-16.3-9.5-22.6-17c-6.6,6.1-7.1,24.8-1.7,34c-6.3,6.5-11.7,14.3-16,22.9V160h132.5V90.3
			C141.9,81.6,136.4,73.8,130,67.3z"/>
	</g>
	<g>
		<path class="st2" d="M109.5,50.4c5-5,12-8.3,19.2-9.7c1.5,8.3,0.5,16.6-2.3,23.9l0,0c-2.7-3.5-6.4-7.2-10.2-9.7
			c-2.3-1.5-4.9-2-7.2-3.4L109.5,50.4z"/>
	</g>
	<g>
		<path class="st2" d="M48.8,52.2c-1.6-2.6-5.3-4.9-7.8-6.7c-2.8-1.9-6.7-4.4-9.7-5.4c-4.1,6.5-1,18,2,24.3
			C37.4,58.2,41.4,55.5,48.8,52.2L48.8,52.2z"/>
	</g>
	<path class="st2" d="M146.3,160c-6.2-28.8-33.6-50.5-66.4-50.5c-32.3,0-59.3,21-66.1,49.1v1.4H146.3z"/>
	<ellipse class="st2" cx="79.3" cy="91" rx="20.1" ry="12.2"/>
	<circle class="st3" cx="51.4" cy="74.8" r="3.5"/>
	<circle class="st4" cx="49.8" cy="73.3" r="1"/>
	<circle class="st3" cx="108.6" cy="74.8" r="3.5"/>
	<circle class="st4" cx="107" cy="73.3" r="1"/>
	<g>
		<path class="st3" d="M86.2,94.5c-3-1.1-4.8-3.3-6.5-5.9c-0.2-0.3-0.7-0.2-0.9,0c-1.7,2.6-3.5,4.8-6.5,5.9
			c-0.7,0.3-0.2,1.4,0.5,1.1c3.2-1.2,5.1-3.5,7-6.3c-0.3,0-0.6,0-0.9,0c1.8,2.8,3.8,5.1,7,6.3C86.5,95.9,86.9,94.7,86.2,94.5
			L86.2,94.5z"/>
	</g>
	<ellipse class="st3" cx="79.2" cy="87.5" rx="2.3" ry="1.7"/>
	<ellipse class="st5" cx="114.3" cy="86.9" rx="9.1" ry="3.5"/>
	<ellipse class="st5" cx="44.8" cy="86.9" rx="9.1" ry="3.5"/>
</g>
</svg>
