<?xml version="1.0" encoding="utf-8"?>
<!-- Generator: Adobe Illustrator 21.1.0, SVG Export Plug-In . SVG Version: 6.00 Build 0)  -->
<svg version="1.1" id="Layer_1" xmlns="http://www.w3.org/2000/svg" xmlns:xlink="http://www.w3.org/1999/xlink" x="0px" y="0px"
	 viewBox="0 0 160 160" style="enable-background:new 0 0 160 160;" xml:space="preserve">
<style type="text/css">
	.st0{fill:#F8F1DC;}
	.st1{fill:#FE8C32;}
	.st2{fill:#F9E1A5;}
	.st3{fill:#5B0018;}
	.st4{fill:#FFFFFF;}
	.st5{fill:#FF9C92;}
	.st6{fill:#F4D592;}
</style>
<g>
	<rect class="st0" width="160" height="160"/>
	<g>
		<path class="st1" d="M139.1,78.8c2.7,0.3,5,0.4,7.4,1.5v-3c-2.9-4.2-8.9-5.2-13.4-7.8c4.4-0.7,9.2-0.8,13.4,0.9V68
			c-5.2-5.5-14.7-6-22-7c3.6-2,7.7-2.4,11.3-2c-5.1-6.2-18.6-5.7-26.3-3.6c3.6-3.6,8.9-4.5,13.8-4.5c-10.9-6.9-25.9-2.3-32.8,2.4
			c1.1-5.7,11.3-8.3,18.6-8.9c-9.3-2.4-23.9-2.8-28.8,7.3c-4.5-7.3-14.6-8.5-22.3-7.3c5.3,1.2,10.5,3.2,14.6,7.3
			c-10.3-4.8-21.9-5.3-32.4-0.8c4.5,0.4,9.3,0.8,13.4,2.4c-10.1,0-21.5,2.8-30,8.9C28.1,62.6,33,61,37.4,61
			c-8.1,2.4-15,6.5-21.9,11.8c2.8,0,5.7,0.8,8.5,0.8c-4.5,1.3-7.7,3.2-10,5.6v30.3c8.2,0.2,17.7-1.9,25-1.9
			c11.3-0.4,23.1-0.4,34.4-0.4c23.1-0.4,46.2,0.8,69.3,0.4c1.3,0,2.5,0,3.7-0.1V85.1C143.9,82.6,141.2,80.5,139.1,78.8z"/>
	</g>
	<g>
		<path class="st2" d="M129.3,82.5c13.2-6.9-9.3-24.8-15-10c0,0-0.3,0.6-0.4,1c-10.4-4.7-21.8-7.4-33.7-7.4c-10.4,0-20.3,2-29.6,5.6
			c-1.8-14.4-28.3-3.2-16.7,7.1c0.5,0.4,1,0.6,1.5,0.8C27.4,84.8,20.2,91.4,14,99v91.1h132.5V99C141.4,92.8,135.7,87.2,129.3,82.5z"
			/>
	</g>
	<g>
		<circle class="st3" cx="47.1" cy="97.1" r="3.5"/>
		<circle class="st4" cx="45.5" cy="95.6" r="1"/>
		<circle class="st3" cx="111.6" cy="97.1" r="3.5"/>
		<circle class="st4" cx="110" cy="95.6" r="1"/>
	</g>
	<ellipse class="st5" cx="119.2" cy="114.1" rx="8.5" ry="3.3"/>
	<ellipse class="st5" cx="40.4" cy="114.1" rx="8.5" ry="3.3"/>
	<ellipse class="st6" cx="80.6" cy="112.6" rx="19" ry="11.4"/>
	<g>
		<path class="st3" d="M92.2,112.4c-3.1,3.5-9.2,0.3-11.2-3c-0.1-0.2-0.5-0.3-0.7-0.1c-2,3.3-8.1,6.6-11.2,3
			c-0.3-0.4-0.9,0.1-0.6,0.5c3.5,4,10.2,0.7,12.5-3.1c-0.2,0-0.5,0-0.7-0.1c2.3,3.8,9,7.1,12.6,3.1C93.2,112.5,92.5,112,92.2,112.4
			L92.2,112.4z"/>
	</g>
	<ellipse class="st3" cx="80.6" cy="107.9" rx="3.2" ry="1.6"/>
	<g>
		<path class="st6" d="M38.2,69.9c-3.1,2.4-2.1,5.4-0.8,8c2.8-2.6,5.7-4.3,10.1-5.3C45.3,67.3,40.6,68.1,38.2,69.9z"/>
	</g>
	<g>
		<path class="st6" d="M118.1,74c1.7,0.3,6.7,2.9,8.8,6C134.1,73.8,121.2,65.8,118.1,74z"/>
	</g>
</g>
</svg>
