<?xml version="1.0" encoding="utf-8"?>
<!-- Generator: Adobe Illustrator 21.1.0, SVG Export Plug-In . SVG Version: 6.00 Build 0)  -->
<svg version="1.1" id="Layer_1" xmlns="http://www.w3.org/2000/svg" xmlns:xlink="http://www.w3.org/1999/xlink" x="0px" y="0px"
	 viewBox="0 0 160 160" style="enable-background:new 0 0 160 160;" xml:space="preserve">
<style type="text/css">
	.st0{fill:#FA6900;}
	.st1{fill:#7C4E12;}
	.st2{fill:#FFFFED;}
	.st3{fill:#5B0018;}
	.st4{fill:#FFFFFF;}
	.st5{fill:#FFD9D7;}
</style>
<g>
	<rect class="st0" width="160" height="160"/>
	<g>
		<path class="st1" d="M119.1,49.9c6-15.6,28.1,8.3,12.5,11c-3.8,0.8-12.3-5.5-13-9.3c0-0.5,0.3-1,0.3-1.3L119.1,49.9z"/>
	</g>
	<g>
		<path class="st1" d="M43.8,50.1c0.8-16.3-23.8-2-15.3,5.8c4,3.5,11.8-4,15.1-5.8H43.8z"/>
	</g>
	<path class="st2" d="M146.3,163.2V72.2C129.9,51.9,106.3,39.2,80,39.2c-26.3,0-49.9,12.7-66.3,32.9v91.1H146.3z"/>
	<path class="st1" d="M78.2,138.3c-17.6,0.2-48.7-4.5-64.5-11.7v36.7h132.5v-39.6C136.2,130.6,106.2,138,78.2,138.3z"/>
	<ellipse class="st1" cx="111.7" cy="70" rx="11.5" ry="9.5"/>
	<ellipse class="st1" cx="46.9" cy="70.5" rx="11.5" ry="9.5"/>
	<g>
		<circle class="st3" cx="46.9" cy="70.2" r="3.5"/>
		<circle class="st4" cx="45.3" cy="68.7" r="1"/>
		<circle class="st3" cx="111.4" cy="70.2" r="3.5"/>
		<circle class="st4" cx="109.8" cy="68.7" r="1"/>
	</g>
	<ellipse class="st5" cx="118.9" cy="87.2" rx="8.5" ry="3.2"/>
	<ellipse class="st5" cx="40.2" cy="87.2" rx="8.5" ry="3.2"/>
	<g>
		<g>
			<path class="st3" d="M92.7,91.4c-2.5-0.1-4.9-0.7-7-2.1c-2.2-1.4-3.7-3.6-4.8-6c-0.2-0.5-0.9-0.4-1.1,0c-2.2,4.6-6.4,8-11.7,7.9
				c-1,0-0.9,1.5,0.1,1.3c2.8-0.4,5.2-0.9,7.6-2.4c2.4-1.5,4-4,5.2-6.5c-0.4,0-0.8,0-1.1,0.1c1.2,2.4,2.8,4.6,5,6.2
				c2.3,1.7,5.1,2.3,7.8,2.5C93.4,92.7,93.5,91.5,92.7,91.4L92.7,91.4z"/>
		</g>
	</g>
	<ellipse class="st3" cx="80.4" cy="82.1" rx="4.6" ry="2.3"/>
</g>
</svg>
