<?xml version="1.0" encoding="utf-8"?>
<!-- Generator: Adobe Illustrator 21.1.0, SVG Export Plug-In . SVG Version: 6.00 Build 0)  -->
<svg version="1.1" id="Layer_1" xmlns="http://www.w3.org/2000/svg" xmlns:xlink="http://www.w3.org/1999/xlink" x="0px" y="0px"
	 viewBox="0 0 160 160" style="enable-background:new 0 0 160 160;" xml:space="preserve">
<style type="text/css">
	.st0{fill:#A7DBD8;}
	.st1{fill:#FFFFED;}
	.st2{fill:#F4F3E4;}
	.st3{fill:#5B0018;}
	.st4{fill:#FFFFFF;}
	.st5{fill:#FFD9D7;}
</style>
<g>
	<rect class="st0" width="160" height="160"/>
	<g>
		<path class="st1" d="M132.1,70.8c0.4-0.3,0.7-0.6,1.1-0.9c2.7-2.7,3.5-6.4,2.1-10c-2.5-6.7-11.8-8-15.8-2.9
			c-11.2-9.7-24.2-15.3-38.2-15.3c-13.9,0-26.9,5.5-38,15.2c-3.7-6.3-13.3-5.6-16.2,1.2c-2.3,4.9-1.8,12,2.9,13.5
			c-6.8,9.4-12.3,20.7-16.2,33.3v64.8h132.5V97.1C142.5,87.3,137.7,78.4,132.1,70.8z"/>
	</g>
	<ellipse class="st2" cx="81.8" cy="92.4" rx="19.1" ry="13.1"/>
	<circle class="st3" cx="53.2" cy="76.5" r="3.5"/>
	<circle class="st4" cx="51.6" cy="75" r="1"/>
	<circle class="st3" cx="110.5" cy="76.5" r="3.5"/>
	<circle class="st4" cx="108.9" cy="75" r="1"/>
	<ellipse class="st3" cx="81.8" cy="88.1" rx="2.9" ry="2.1"/>
	<ellipse class="st5" cx="112.2" cy="90.3" rx="7.7" ry="3.6"/>
	<ellipse class="st5" cx="51.5" cy="90.3" rx="7.7" ry="3.6"/>
	<g>
		<path class="st5" d="M30.5,59.5c-1.6,2.2-1.3,8,1.3,9.6c1.6-3.8,4.1-7.1,9.2-10.7C41.1,58.3,35,53.3,30.5,59.5z"/>
	</g>
	<g>
		<path class="st5" d="M123.3,58.6c2.1-1.7,7.6-1.9,9,0.9c1.2,2.5-0.1,7.3-2.5,8.6l0,0l0,0c-1.2-3.3-4.3-7.4-7.4-8.9L123.3,58.6z"/>
	</g>
	<g>
		<path class="st3" d="M77.9,95.9c2.4-1.2,3.6-3.5,4.5-5.9c-0.4,0-0.7,0-1.1,0.1c0.9,2.4,2.2,4.8,4.7,5.9c0.7,0.3,1.1-0.8,0.4-1.1
			c-2.1-1-3.2-3.2-4-5.3c-0.2-0.5-0.9-0.4-1.1,0c-0.9,2.1-1.8,4.2-3.9,5.2C76.7,95.2,77.2,96.3,77.9,95.9L77.9,95.9z"/>
	</g>
</g>
</svg>
