<?xml version="1.0" encoding="utf-8"?>
<!-- Generator: Adobe Illustrator 21.1.0, SVG Export Plug-In . SVG Version: 6.00 Build 0)  -->
<svg version="1.1" id="Layer_1" xmlns="http://www.w3.org/2000/svg" xmlns:xlink="http://www.w3.org/1999/xlink" x="0px" y="0px"
	 viewBox="0 0 160 160" style="enable-background:new 0 0 160 160;" xml:space="preserve">
<style type="text/css">
	.st0{fill:#B9C687;}
	.st1{fill:#A06702;}
	.st2{fill:#5B0018;}
	.st3{fill:#FFFFFF;}
	.st4{fill:#FF9C92;}
	.st5{fill:#FFBEBB;}
	.st6{fill:#FFFFED;}
	.st7{fill:#F8F1DC;}
</style>
<g>
	<rect class="st0" width="160" height="160"/>
	<g>
		<path class="st1" d="M140.5,71c0.2-0.1,0.3-0.2,0.5-0.3c8.8-6.1-9.9-21.5-13.8-10.8C113.8,50.8,97.9,45.5,81,45.5
			c-16.8,0-32.5,5.2-45.9,14.2l-0.1-0.2c-7.1-14-24.8,8.1-13.8,11.8c-2.2,2.3-4.3,4.6-6.4,7.1v91.1h132.5V78.5
			C145.1,75.8,142.9,73.4,140.5,71z"/>
	</g>
	<g>
		<circle class="st2" cx="114.1" cy="76.5" r="3.5"/>
		<circle class="st3" cx="115.7" cy="75" r="1"/>
		<circle class="st2" cx="49.6" cy="76.5" r="3.5"/>
		<circle class="st3" cx="51.2" cy="75" r="1"/>
	</g>
	<ellipse class="st4" cx="42.1" cy="93.5" rx="8.5" ry="3.3"/>
	<ellipse class="st4" cx="120.8" cy="93.5" rx="8.5" ry="3.3"/>
	<ellipse class="st2" cx="80.7" cy="88.4" rx="4.6" ry="2.3"/>
	<g>
		<path class="st5" d="M130.6,62.3c2.6,1.4,6.6,5.2,6.9,5.6C141.6,64.5,134,58.3,130.6,62.3z"/>
	</g>
	<g>
		<path class="st5" d="M24.2,62.9c-0.8,1.5-1.1,3.8,0.4,5.2c1.2-2.3,5.1-5.3,7.1-6.4l-0.1,0C30,59.9,25.5,60.4,24.2,62.9z"/>
	</g>
	<g>
		<path class="st6" d="M81,91c-4.1,4.7-6.4,6.8-7.6,7.9l-0.4,0.2c0.3,4.8,0.4,9.8,1.5,14.3c0.7,0.8,10.2,0.5,10.7,0
			c0.5-0.5,1.5-10.6,2-14.5C83.6,95.6,80.9,90.6,81,91z"/>
	</g>
	<g>
		<g>
			<path class="st2" d="M104.9,100.4c-9.2,3-19.5-1.5-23.5-10.4c-0.3-0.6-1.1-0.5-1.4,0.1c-2,4.3-5.4,7.6-9.7,9.6
				c-4.6,2-9.2,1.7-14,0.7c-0.7-0.2-0.9,0.9-0.3,1.2c4.6,2,10.3,1.4,14.9-0.5c4.7-2,8.4-5.8,10.4-10.4c-0.5,0-0.9,0-1.4,0.1
				c2.1,4.7,5.8,8.3,10.5,10.3c4.8,2.1,10,2.1,14.9,0.5C106.1,101.2,105.6,100.2,104.9,100.4L104.9,100.4z"/>
		</g>
	</g>
	<path class="st7" d="M80.9,123.9c-29,0-53.2,19.6-58.3,45.6h116.5C134,143.6,109.9,123.9,80.9,123.9z"/>
</g>
</svg>
