<?xml version="1.0" encoding="utf-8"?>
<!-- Generator: Adobe Illustrator 21.1.0, SVG Export Plug-In . SVG Version: 6.00 Build 0)  -->
<svg version="1.1" id="Layer_1" xmlns="http://www.w3.org/2000/svg" xmlns:xlink="http://www.w3.org/1999/xlink" x="0px" y="0px"
	 viewBox="0 0 160 159.7" style="enable-background:new 0 0 160 159.7;" xml:space="preserve">
<style type="text/css">
	.st0{fill:#EAEED5;}
	.st1{fill:#B24C07;}
	.st2{fill:#FE8C32;}
	.st3{fill:#FFC190;}
	.st4{fill:#5F0019;}
	.st5{fill:#FFFFFF;}
	.st6{fill:#FF9583;}
</style>
<g>
	<rect class="st0" width="160" height="160"/>
	<g>
		<path class="st1" d="M113.8,55.6l-0.6,0.3c0.3,2.3,1.1,3.7,2.6,5.4c6.8,8.8,27.4,14,26.5-2.6C141.5,42.7,116.9,39.6,113.8,55.6z"
			/>
	</g>
	<g>
		<path class="st1" d="M23.1,51.6c-10,14.3,9.7,22.5,20.5,14c2.9-2.3,5.1-5.4,5.7-8.8l0.3,1.7C48.7,43.3,31.9,39,23.1,51.6z"/>
	</g>
	<g>
		<path class="st2" d="M133.4,65.2c0.6-0.7,1.1-1.7,1.5-3.1c2.8-9.9-11.7-14.7-15.1-6.2c-11.9-6.6-25.3-10.3-39.6-10.3
			c-13,0-25.3,3.1-36.4,8.7c-2.5-4.1-8.1-7.8-13.6-3.7c-2.5,1.8-4.4,3.9-4.4,7.1c0,2.2,1.3,4.6,2.9,6.2C23.3,68.1,18.4,73,14,78.5
			v91.1h132.5V78.5C142.5,73.6,138.2,69.1,133.4,65.2z"/>
	</g>
	<path class="st3" d="M80.3,117.5c-26.5,0-48.5,22.4-52.9,52h105.9C128.8,140,106.8,117.5,80.3,117.5z"/>
	<path class="st1" d="M93.7,66.4c0.8,1.8,2.8,2.4,4.1,1.3c5-4.8,4.7-12,5-18.9c-2.9-0.8-5.8-1.5-8.7-2
		C93.6,53.3,91.8,59.9,93.7,66.4z"/>
	<path class="st1" d="M32.7,138.2c2.2-0.1,4.6-1.7,5.6-3.8c0.5-1.3,0.8-3.2-0.3-4.3c-6.4-5.6-15.1-5.1-23-5.1
		c-0.2,0-0.8-0.1-1.1-0.3v13.5C20.3,138.7,26.4,138.4,32.7,138.2z"/>
	<path class="st1" d="M37.6,159.4c-2.2-8-14.8-4.9-23.6-3.8v11.1c5.5-0.2,10.9-1.1,16.4-2C33.6,164.2,38.5,162.7,37.6,159.4z"/>
	<path class="st1" d="M118.9,154.1c0.8,2.1,2.7,3.5,5,4c7.6,1.4,15.6-0.1,22.6,1.7v-13.3c-8.2,0.7-16.2,0.5-24.7,2.3
		C119.7,149.3,118.1,151.7,118.9,154.1z"/>
	<path class="st1" d="M123.4,133.4c7.8,1.1,15.4,1.8,23.1,1.9v-11.9c-9.1,0.3-20-0.6-26.8,4.7C117.8,129.6,120.4,132.9,123.4,133.4z
		"/>
	<path class="st1" d="M65.6,46.8c-3.6,0.7-7.2,1.6-10.7,2.7c-0.2,5.8-0.9,11.9,2.2,16.9c1.1,1.7,3.1,1.9,4.3,1.3
		C68.4,64.5,65.5,54.3,65.6,46.8z"/>
	<path class="st1" d="M80.3,45.5c-2,0-4.1,0.1-6.1,0.2c-0.4,6.7-2.5,13.5-0.8,20.4c0.4,1.8,2.5,2.4,3.8,2.1c7-1.7,5.3-14.5,5.7-22.7
		C82,45.5,81.2,45.5,80.3,45.5z"/>
	<g>
		<circle class="st4" cx="47.1" cy="76.5" r="3.5"/>
		<circle class="st5" cx="45.5" cy="75" r="1"/>
		<circle class="st4" cx="111.6" cy="76.5" r="3.5"/>
		<circle class="st5" cx="110" cy="75" r="1"/>
	</g>
	<g>
		<path class="st4" d="M102.9,92.5c-6.8,6.1-18.4,6.2-22.9-2.6c-0.3-0.6-1-0.5-1.3,0.1c-2.1,4-5.9,6.4-10.3,6.9
			c-4.8,0.5-8.9-1.6-12.6-4.4c-0.6-0.4-1.4,0.4-0.9,1c3.4,3.6,8.8,5.3,13.7,4.8c4.9-0.5,9.1-3.5,11.4-7.8c-0.4,0-0.8,0-1.3,0.1
			c2.2,4.3,6.3,7,11.1,7.7c5.1,0.7,10.1-1.4,13.8-4.7C104.2,92.9,103.4,92,102.9,92.5L102.9,92.5z"/>
	</g>
	<ellipse class="st4" cx="79.4" cy="88.5" rx="2.7" ry="1.8"/>
	<ellipse class="st6" cx="119.2" cy="89.6" rx="8.5" ry="3.2"/>
	<ellipse class="st6" cx="40.4" cy="89.6" rx="8.5" ry="3.2"/>
</g>
</svg>
